<mxfile host="www.draw.io" modified="2019-10-22T08:29:07.728Z" agent="Mozilla/5.0 (Macintosh; Intel Mac OS X 10.14; rv:68.0) Gecko/20100101 Firefox/68.0" etag="sd2I6YAu4StO4gTA5wGI" version="12.1.3" type="github" pages="2">
  <diagram id="YJ8ySdL3w5NrwEoesEpW" name="Page-1">
    <mxGraphModel dx="946" dy="551" grid="0" gridSize="10" guides="1" tooltips="1" connect="1" arrows="1" fold="1" page="1" pageScale="1" pageWidth="827" pageHeight="1169" math="0" shadow="0">
      <root>
        <mxCell id="0"/>
        <mxCell id="1" parent="0"/>
        <mxCell id="JujOixVSV5j3YMfMiI4B-8" value="" style="edgeStyle=orthogonalEdgeStyle;rounded=0;orthogonalLoop=1;jettySize=auto;html=1;" parent="1" source="JujOixVSV5j3YMfMiI4B-2" target="JujOixVSV5j3YMfMiI4B-7" edge="1">
          <mxGeometry relative="1" as="geometry"/>
        </mxCell>
        <mxCell id="JujOixVSV5j3YMfMiI4B-2" value="&lt;div&gt;ODS&lt;/div&gt;" style="rounded=1;whiteSpace=wrap;html=1;" parent="1" vertex="1">
          <mxGeometry x="160" y="360" width="280" height="40" as="geometry"/>
        </mxCell>
        <mxCell id="JujOixVSV5j3YMfMiI4B-7" value="DWD" style="rounded=1;whiteSpace=wrap;html=1;" parent="1" vertex="1">
          <mxGeometry x="160" y="300" width="280" height="40" as="geometry"/>
        </mxCell>
        <mxCell id="JujOixVSV5j3YMfMiI4B-9" value="DWS" style="rounded=1;whiteSpace=wrap;html=1;" parent="1" vertex="1">
          <mxGeometry x="240" y="240" width="200" height="40" as="geometry"/>
        </mxCell>
        <mxCell id="JujOixVSV5j3YMfMiI4B-11" value="DWM" style="rounded=1;whiteSpace=wrap;html=1;" parent="1" vertex="1">
          <mxGeometry x="320" y="180" width="120" height="40" as="geometry"/>
        </mxCell>
        <mxCell id="JujOixVSV5j3YMfMiI4B-14" value="BI" style="rounded=1;whiteSpace=wrap;html=1;" parent="1" vertex="1">
          <mxGeometry x="160" y="120" width="280" height="40" as="geometry"/>
        </mxCell>
        <mxCell id="JujOixVSV5j3YMfMiI4B-18" value="" style="endArrow=classic;html=1;exitX=0.143;exitY=0;exitDx=0;exitDy=0;exitPerimeter=0;entryX=0.146;entryY=1.05;entryDx=0;entryDy=0;entryPerimeter=0;" parent="1" source="JujOixVSV5j3YMfMiI4B-7" target="JujOixVSV5j3YMfMiI4B-14" edge="1">
          <mxGeometry width="50" height="50" relative="1" as="geometry">
            <mxPoint x="170" y="290" as="sourcePoint"/>
            <mxPoint x="200" y="170" as="targetPoint"/>
          </mxGeometry>
        </mxCell>
        <mxCell id="JujOixVSV5j3YMfMiI4B-20" value="" style="endArrow=classic;html=1;entryX=0.432;entryY=1;entryDx=0;entryDy=0;entryPerimeter=0;exitX=0.195;exitY=0;exitDx=0;exitDy=0;exitPerimeter=0;" parent="1" source="JujOixVSV5j3YMfMiI4B-9" target="JujOixVSV5j3YMfMiI4B-14" edge="1">
          <mxGeometry width="50" height="50" relative="1" as="geometry">
            <mxPoint x="281" y="200" as="sourcePoint"/>
            <mxPoint x="300" y="170" as="targetPoint"/>
          </mxGeometry>
        </mxCell>
        <mxCell id="JujOixVSV5j3YMfMiI4B-27" value="" style="endArrow=classic;html=1;entryX=0.5;entryY=1;entryDx=0;entryDy=0;" parent="1" target="JujOixVSV5j3YMfMiI4B-9" edge="1">
          <mxGeometry width="50" height="50" relative="1" as="geometry">
            <mxPoint x="340" y="300" as="sourcePoint"/>
            <mxPoint x="400" y="290" as="targetPoint"/>
          </mxGeometry>
        </mxCell>
        <mxCell id="JujOixVSV5j3YMfMiI4B-28" value="" style="endArrow=classic;html=1;entryX=0.5;entryY=1;entryDx=0;entryDy=0;exitX=0.695;exitY=-0.025;exitDx=0;exitDy=0;exitPerimeter=0;" parent="1" source="JujOixVSV5j3YMfMiI4B-9" target="JujOixVSV5j3YMfMiI4B-11" edge="1">
          <mxGeometry width="50" height="50" relative="1" as="geometry">
            <mxPoint x="360" y="250" as="sourcePoint"/>
            <mxPoint x="410" y="200" as="targetPoint"/>
          </mxGeometry>
        </mxCell>
        <mxCell id="JujOixVSV5j3YMfMiI4B-29" value="" style="endArrow=classic;html=1;exitX=0.5;exitY=0;exitDx=0;exitDy=0;" parent="1" source="JujOixVSV5j3YMfMiI4B-11" edge="1">
          <mxGeometry width="50" height="50" relative="1" as="geometry">
            <mxPoint x="360" y="210" as="sourcePoint"/>
            <mxPoint x="381" y="160" as="targetPoint"/>
          </mxGeometry>
        </mxCell>
        <mxCell id="JujOixVSV5j3YMfMiI4B-30" value="DIM" style="rounded=1;whiteSpace=wrap;html=1;" parent="1" vertex="1">
          <mxGeometry x="460" y="120" width="60" height="220" as="geometry"/>
        </mxCell>
        <mxCell id="JujOixVSV5j3YMfMiI4B-31" value="TMP" style="rounded=1;whiteSpace=wrap;html=1;" parent="1" vertex="1">
          <mxGeometry x="80" y="120" width="60" height="220" as="geometry"/>
        </mxCell>
        <mxCell id="JujOixVSV5j3YMfMiI4B-34" value="" style="endArrow=classic;html=1;exitX=1;exitY=0.5;exitDx=0;exitDy=0;entryX=-0.017;entryY=0.914;entryDx=0;entryDy=0;entryPerimeter=0;" parent="1" source="JujOixVSV5j3YMfMiI4B-7" target="JujOixVSV5j3YMfMiI4B-30" edge="1">
          <mxGeometry width="50" height="50" relative="1" as="geometry">
            <mxPoint x="430" y="350" as="sourcePoint"/>
            <mxPoint x="480" y="300" as="targetPoint"/>
          </mxGeometry>
        </mxCell>
        <mxCell id="JujOixVSV5j3YMfMiI4B-35" value="" style="endArrow=classic;html=1;exitX=1;exitY=0.5;exitDx=0;exitDy=0;" parent="1" source="JujOixVSV5j3YMfMiI4B-9" edge="1">
          <mxGeometry width="50" height="50" relative="1" as="geometry">
            <mxPoint x="430" y="280" as="sourcePoint"/>
            <mxPoint x="460" y="258" as="targetPoint"/>
            <Array as="points">
              <mxPoint x="460" y="258"/>
            </Array>
          </mxGeometry>
        </mxCell>
        <mxCell id="JujOixVSV5j3YMfMiI4B-36" value="" style="endArrow=classic;html=1;exitX=1;exitY=0.5;exitDx=0;exitDy=0;entryX=-0.017;entryY=0.359;entryDx=0;entryDy=0;entryPerimeter=0;" parent="1" source="JujOixVSV5j3YMfMiI4B-11" target="JujOixVSV5j3YMfMiI4B-30" edge="1">
          <mxGeometry width="50" height="50" relative="1" as="geometry">
            <mxPoint x="440" y="230" as="sourcePoint"/>
            <mxPoint x="490" y="180" as="targetPoint"/>
          </mxGeometry>
        </mxCell>
        <mxCell id="JujOixVSV5j3YMfMiI4B-37" value="" style="endArrow=classic;html=1;exitX=1;exitY=0.5;exitDx=0;exitDy=0;entryX=0;entryY=0.086;entryDx=0;entryDy=0;entryPerimeter=0;" parent="1" source="JujOixVSV5j3YMfMiI4B-14" target="JujOixVSV5j3YMfMiI4B-30" edge="1">
          <mxGeometry width="50" height="50" relative="1" as="geometry">
            <mxPoint x="440" y="150" as="sourcePoint"/>
            <mxPoint x="490" y="100" as="targetPoint"/>
          </mxGeometry>
        </mxCell>
      </root>
    </mxGraphModel>
  </diagram>
  <diagram id="NOLCYwvP3EVgYl7J9236" name="Page-2">
    <mxGraphModel dx="946" dy="551" grid="0" gridSize="10" guides="1" tooltips="1" connect="1" arrows="1" fold="1" page="1" pageScale="1" pageWidth="827" pageHeight="1169" math="0" shadow="0">
      <root>
        <mxCell id="orCcFs62Xhh-WwbkOlBU-0"/>
        <mxCell id="orCcFs62Xhh-WwbkOlBU-1" parent="orCcFs62Xhh-WwbkOlBU-0"/>
        <mxCell id="43GMEmReN-n_UUXPoSXH-2" value="&lt;div&gt;ODS数据接入层&lt;/div&gt;" style="rounded=1;whiteSpace=wrap;html=1;" vertex="1" parent="orCcFs62Xhh-WwbkOlBU-1">
          <mxGeometry x="220" y="350" width="280" height="40" as="geometry"/>
        </mxCell>
        <mxCell id="43GMEmReN-n_UUXPoSXH-3" value="DWD数据明细层" style="rounded=1;whiteSpace=wrap;html=1;" vertex="1" parent="orCcFs62Xhh-WwbkOlBU-1">
          <mxGeometry x="220" y="290" width="280" height="40" as="geometry"/>
        </mxCell>
        <mxCell id="43GMEmReN-n_UUXPoSXH-4" value="DWS数据汇总层" style="rounded=1;whiteSpace=wrap;html=1;" vertex="1" parent="orCcFs62Xhh-WwbkOlBU-1">
          <mxGeometry x="220" y="230" width="280" height="40" as="geometry"/>
        </mxCell>
        <mxCell id="43GMEmReN-n_UUXPoSXH-5" value="DWM数据集市层" style="rounded=1;whiteSpace=wrap;html=1;" vertex="1" parent="orCcFs62Xhh-WwbkOlBU-1">
          <mxGeometry x="220" y="170" width="280" height="40" as="geometry"/>
        </mxCell>
        <mxCell id="43GMEmReN-n_UUXPoSXH-6" value="&lt;div&gt;BI应用层&lt;/div&gt;" style="rounded=1;whiteSpace=wrap;html=1;" vertex="1" parent="orCcFs62Xhh-WwbkOlBU-1">
          <mxGeometry x="220" y="110" width="280" height="40" as="geometry"/>
        </mxCell>
        <mxCell id="43GMEmReN-n_UUXPoSXH-12" value="DIM维度表" style="rounded=1;whiteSpace=wrap;html=1;" vertex="1" parent="orCcFs62Xhh-WwbkOlBU-1">
          <mxGeometry x="520" y="170" width="60" height="160" as="geometry"/>
        </mxCell>
        <mxCell id="43GMEmReN-n_UUXPoSXH-13" value="TMP临时表" style="rounded=1;whiteSpace=wrap;html=1;" vertex="1" parent="orCcFs62Xhh-WwbkOlBU-1">
          <mxGeometry x="140" y="170" width="60" height="160" as="geometry"/>
        </mxCell>
        <mxCell id="43GMEmReN-n_UUXPoSXH-18" value="" style="endArrow=none;dashed=1;html=1;" edge="1" parent="orCcFs62Xhh-WwbkOlBU-1">
          <mxGeometry width="50" height="50" relative="1" as="geometry">
            <mxPoint x="120" y="340" as="sourcePoint"/>
            <mxPoint x="120" y="160" as="targetPoint"/>
          </mxGeometry>
        </mxCell>
        <mxCell id="43GMEmReN-n_UUXPoSXH-19" value="" style="endArrow=none;dashed=1;html=1;" edge="1" parent="orCcFs62Xhh-WwbkOlBU-1">
          <mxGeometry width="50" height="50" relative="1" as="geometry">
            <mxPoint x="120" y="160" as="sourcePoint"/>
            <mxPoint x="600" y="160" as="targetPoint"/>
          </mxGeometry>
        </mxCell>
        <mxCell id="43GMEmReN-n_UUXPoSXH-20" value="" style="endArrow=none;dashed=1;html=1;" edge="1" parent="orCcFs62Xhh-WwbkOlBU-1">
          <mxGeometry width="50" height="50" relative="1" as="geometry">
            <mxPoint x="120" y="340" as="sourcePoint"/>
            <mxPoint x="600" y="340" as="targetPoint"/>
          </mxGeometry>
        </mxCell>
        <mxCell id="43GMEmReN-n_UUXPoSXH-21" value="" style="endArrow=none;dashed=1;html=1;" edge="1" parent="orCcFs62Xhh-WwbkOlBU-1">
          <mxGeometry width="50" height="50" relative="1" as="geometry">
            <mxPoint x="600" y="340" as="sourcePoint"/>
            <mxPoint x="600" y="160" as="targetPoint"/>
          </mxGeometry>
        </mxCell>
      </root>
    </mxGraphModel>
  </diagram>
</mxfile>
